HIERARCHY
ROOT Hips
{
	OFFSET 0.000000 0.000000 0.000000
	CHANNELS 6 Xposition Yposition Zposition Xrotation Yrotation Zrotation
	JOINT LeftUpLeg_virtual
	{
		OFFSET 0.000000 0.000000 0.000000
		CHANNELS 3 Xrotation Yrotation Zrotation
		JOINT LeftUpLeg
		{
			OFFSET 10.205400 -3.823500 0.155100
			CHANNELS 3 Xrotation Yrotation Zrotation
			JOINT LeftLeg
			{
				OFFSET 0.708757 -12.982077 0.567790
				CHANNELS 3 Xrotation Yrotation Zrotation
				JOINT LeftFoot
				{
					OFFSET -0.708756 -10.717838 -2.184338
					CHANNELS 3 Xrotation Yrotation Zrotation
					JOINT LeftToeBase
					{
						OFFSET 0.108149 -7.191104 7.560241
						CHANNELS 3 Xrotation Yrotation Zrotation
						JOINT LeftToe_End
						{
							OFFSET 0.070230 0.081724 4.490308
							CHANNELS 3 Xrotation Yrotation Zrotation
							End Site
							{
								OFFSET 0 0 0
							}
						}
					}
				}
			}
		}
	}
	JOINT RightUpLeg_virtual
	{
		OFFSET 0.000000 0.000000 0.000000
		CHANNELS 3 Xrotation Yrotation Zrotation
		JOINT RightUpLeg
		{
			OFFSET -10.205400 -3.823500 0.005500
			CHANNELS 3 Xrotation Yrotation Zrotation
			JOINT RightLeg
			{
				OFFSET -0.708756 -12.982134 0.610632
				CHANNELS 3 Xrotation Yrotation Zrotation
				JOINT RightFoot
				{
					OFFSET 0.708754 -10.717769 -1.945823
					CHANNELS 3 Xrotation Yrotation Zrotation
					JOINT RightToeBase
					{
						OFFSET -0.108140 -7.191069 7.372968
						CHANNELS 3 Xrotation Yrotation Zrotation
						JOINT RightToe_End
						{
							OFFSET -0.070227 0.081735 4.479403
							CHANNELS 3 Xrotation Yrotation Zrotation
							End Site
							{
								OFFSET 0 0 0
							}
						}
					}
				}
			}
		}
	}
	JOINT Spine_virtual
	{
		OFFSET 0.000000 0.000000 0.000000
		CHANNELS 3 Xrotation Yrotation Zrotation
		JOINT Spine
		{
			OFFSET 0.000000 6.876099 0.125700
			CHANNELS 3 Xrotation Yrotation Zrotation
			JOINT Spine1
			{
				OFFSET 0.000000 5.730043 0.104720
				CHANNELS 3 Xrotation Yrotation Zrotation
				JOINT Spine1_split
				{
					OFFSET 0.000000 5.730043 0.104720
					CHANNELS 3 Xrotation Yrotation Zrotation
					JOINT Spine2
					{
						OFFSET 0.000000 5.730043 0.104720
						CHANNELS 3 Xrotation Yrotation Zrotation
						JOINT Neck_virtual
						{
							OFFSET 0.000000 0.000000 0.000000
							CHANNELS 3 Xrotation Yrotation Zrotation
							JOINT Neck
							{
								OFFSET 0.000000 10.314075 0.188496
								CHANNELS 3 Xrotation Yrotation Zrotation
								JOINT Head
								{
									OFFSET 0.000000 7.643700 -2.377400
									CHANNELS 3 Xrotation Yrotation Zrotation
									JOINT HeadTop_End
									{
										OFFSET 0.000000 43.788605 -13.619600
										CHANNELS 3 Xrotation Yrotation Zrotation
										End Site
										{
											OFFSET 0 0 0
										}
									}
								}
							}
						}
						JOINT LeftShoulder_virtual
						{
							OFFSET 0.000000 0.000000 0.000000
							CHANNELS 3 Xrotation Yrotation Zrotation
							JOINT LeftShoulder
							{
								OFFSET 2.196100 4.412489 0.087492
								CHANNELS 3 Xrotation Yrotation Zrotation
								JOINT LeftShoulder_split
								{
									OFFSET 2.196100 4.412489 0.087492
									CHANNELS 3 Xrotation Yrotation Zrotation
									JOINT LeftArm
									{
										OFFSET 8.771219 -2.981674 -0.026999
										CHANNELS 3 Xrotation Yrotation Zrotation
										JOINT LeftForeArm
										{
											OFFSET 8.512804 0.000000 -0.000000
											CHANNELS 3 Xrotation Yrotation Zrotation
											JOINT LeftHand
											{
												OFFSET 18.484802 0.000000 -0.000000
												CHANNELS 3 Xrotation Yrotation Zrotation
												End Site
												{
													OFFSET 0 0 0
												}
											}
										}
									}
								}
							}
						}
						JOINT RightShoulder_virtual
						{
							OFFSET 0.000000 0.000000 0.000000
							CHANNELS 3 Xrotation Yrotation Zrotation
							JOINT RightShoulder
							{
								OFFSET -2.196100 4.412496 0.070690
								CHANNELS 3 Xrotation Yrotation Zrotation
								JOINT RightShoulder_split
								{
									OFFSET -2.196100 4.412496 0.070690
									CHANNELS 3 Xrotation Yrotation Zrotation
									JOINT RightArm
									{
										OFFSET -8.771282 -2.981682 -0.094208
										CHANNELS 3 Xrotation Yrotation Zrotation
										JOINT RightForeArm
										{
											OFFSET -8.494598 0.000000 0.000000
											CHANNELS 3 Xrotation Yrotation Zrotation
											JOINT RightHand
											{
												OFFSET -18.483803 0.000000 0.000001
												CHANNELS 3 Xrotation Yrotation Zrotation
												End Site
												{
													OFFSET 0 0 0
												}
											}
										}
									}
								}
							}
						}
					}
				}
			}
		}
	}
}
MOTION
Frames: 11
Frame Time: 0.03333333
13.059734 13.256264 161.871353 0.000000 0.000000 0.000000 46.901167 -52.178438 73.130378 -59.143469 -2.642118 21.635867 50.549636 -17.166183 8.817364 -5.326689 7.136434 -21.147814 3.263079 -2.831251 6.170060 0.000000 0.000000 0.000000 47.490903 -55.432914 75.759939 -89.874764 -4.573568 -8.653103 136.936222 10.930694 -3.680832 20.663841 5.848588 39.519584 2.221252 -13.244439 -60.746193 0.000000 0.000000 0.000000 64.170911 -50.048532 83.962136 24.787247 -4.328596 0.413326 10.003944 -11.504092 -4.100051 0.474739 0.440253 0.035393 0.000000 0.000000 0.000000 10.125526 -11.114384 -2.985493 -0.931978 12.434902 12.700435 58.543259 75.035188 -27.104899 0.000000 0.000000 0.000000 11.634432 -11.505419 -2.726554 0.146237 -4.147370 -19.128577 0.955788 -3.012484 -2.273760 6.860496 -17.493825 -47.573903 28.781324 -4.473157 -17.309514 0.000000 0.000000 0.000000 14.057187 -13.831936 -8.039756 15.172874 27.294954 -3.800703 -17.963737 -4.502278 9.924057 -42.137384 -0.737896 -8.004576 -21.134581 26.539347 16.486752 0.000000 0.000000 0.000000 
12.559191 13.034200 167.090622 0.000000 0.000000 0.000000 45.534849 -50.184009 69.359895 -67.157664 -5.584003 25.022287 54.773538 -18.000670 10.154458 0.327948 2.387133 -32.332835 -0.191723 -3.493576 9.075468 0.000000 0.000000 0.000000 42.820952 -53.705648 69.531531 -92.382325 -0.551271 -14.608023 139.724101 15.081908 -12.120297 23.960999 8.727760 46.044610 -2.907943 -10.783715 -62.019921 0.000000 0.000000 0.000000 59.095814 -50.449837 77.632087 24.707578 -2.666357 -0.464831 10.252387 -9.452886 -3.225283 0.209048 0.427810 0.032667 0.000000 0.000000 0.000000 8.997990 -9.286117 -2.471750 1.804052 10.123684 10.979535 40.612657 63.882520 -12.651359 0.000000 0.000000 0.000000 10.649989 -9.666873 -2.633149 0.035646 -6.900997 -18.713660 1.437407 -1.758414 -1.679658 9.564499 -16.455502 -47.283023 28.319079 -4.560364 -18.598424 0.000000 0.000000 0.000000 13.282195 -11.631269 -7.103411 13.929689 26.955767 -2.801809 -16.328173 -1.471245 8.583693 -43.728876 -5.153128 -5.987714 -21.938802 26.302676 14.426758 0.000000 0.000000 0.000000 
12.056118 12.958652 172.124146 0.000000 0.000000 0.000000 43.620894 -48.138149 64.765035 -76.740372 -5.826575 27.645932 58.733726 -15.261165 8.830752 8.130786 -0.704504 -35.309288 -1.540068 -3.965060 10.770086 0.000000 0.000000 0.000000 39.860817 -52.016641 63.918932 -90.214955 2.358271 -20.064205 141.024582 17.243000 -18.256262 28.718654 8.813544 51.738253 -7.613859 -7.974495 -61.915159 0.000000 0.000000 0.000000 53.245689 -50.425948 70.405173 24.243734 -1.027374 -1.818780 9.861292 -7.352785 -2.671211 0.056878 0.348977 -0.058374 0.000000 0.000000 0.000000 7.175164 -7.450570 -2.367766 3.298909 7.800692 9.762047 32.176294 49.693564 -7.520315 0.000000 0.000000 0.000000 9.030494 -7.928315 -3.120708 0.040389 -8.425613 -17.620493 1.558299 -1.831682 -1.319790 13.808083 -14.919312 -43.518502 27.582215 -3.779595 -19.446846 0.000000 0.000000 0.000000 12.030526 -9.113155 -6.176690 12.023757 24.956879 -1.322072 -14.867835 1.011888 6.910940 -42.944965 -13.087094 0.157047 -23.276139 29.545677 13.361278 0.000000 0.000000 0.000000 
11.489738 12.951716 176.926788 0.000000 0.000000 0.000000 40.837930 -46.750094 58.950468 -88.100424 -4.383386 30.196522 64.058193 -10.365860 5.607767 18.976984 -1.910993 -32.793429 -0.406914 -3.942031 10.874623 0.000000 0.000000 0.000000 37.028156 -50.840844 57.638771 -81.516286 1.511702 -25.181278 140.487033 17.623538 -21.626426 31.150662 3.693477 54.790470 -10.030508 -5.315869 -60.960456 0.000000 0.000000 0.000000 47.024647 -50.286947 62.662662 23.347777 0.514440 -3.481260 9.120446 -5.547570 -2.409881 -0.066513 0.321718 -0.096989 0.000000 0.000000 0.000000 5.331366 -5.792995 -2.599063 3.489584 5.581265 8.966861 26.873086 35.271295 -5.870284 0.000000 0.000000 0.000000 7.149885 -6.472909 -3.965822 0.190736 -8.327853 -15.877919 1.655674 -2.347412 -1.514654 18.459237 -11.448534 -36.353156 26.392402 -3.392668 -19.681643 0.000000 0.000000 0.000000 10.668073 -6.716132 -5.328065 9.941094 21.581969 0.242834 -13.499874 2.297280 5.955668 -36.920553 -23.296828 11.585900 -25.617980 36.706601 14.144477 0.000000 0.000000 0.000000 
10.922484 13.043563 181.387650 0.000000 0.000000 0.000000 38.075579 -46.857748 52.914913 -100.513740 -2.745458 32.861731 71.941720 -5.577284 1.336326 31.897824 -2.174915 -28.531230 0.735612 -3.661254 9.670960 0.000000 0.000000 0.000000 34.584779 -50.371672 51.073388 -66.791163 -4.983142 -29.194032 137.396891 17.256804 -23.070940 29.895574 -4.686338 58.360586 -12.925733 -0.762239 -60.806278 0.000000 0.000000 0.000000 40.815817 -50.039284 54.410520 22.002455 1.919312 -5.161363 8.383941 -4.213176 -2.397833 -0.063294 0.361859 -0.116559 0.000000 0.000000 0.000000 4.116262 -4.489838 -2.990704 2.407564 3.640016 8.528079 21.950102 23.225228 -6.112717 0.000000 0.000000 0.000000 5.279258 -5.330065 -4.869188 0.407462 -6.727990 -13.701566 2.158058 -2.827223 -2.358269 21.615909 -5.185900 -27.029381 24.293759 -4.505854 -19.316046 0.000000 0.000000 0.000000 9.424254 -4.850461 -4.625507 8.075263 17.732611 1.501435 -12.353019 2.193404 5.497615 -23.955331 -31.846819 28.894436 -29.859767 46.627041 17.774942 0.000000 0.000000 0.000000 
10.437265 13.195128 185.570740 0.000000 0.000000 0.000000 34.816237 -48.466906 46.399797 -111.453661 -0.675953 34.971808 81.021125 -1.815651 -2.982424 42.197151 -0.839715 -23.256628 -1.420073 -3.542355 8.196986 0.000000 0.000000 0.000000 32.285601 -50.725568 44.567859 -49.797512 -16.204979 -30.158820 131.763952 17.463165 -24.015671 27.275473 -9.699598 65.941412 -17.804491 6.723660 -62.066906 0.000000 0.000000 0.000000 34.728722 -49.594738 45.786986 20.378843 3.094382 -6.531744 8.017646 -3.452659 -2.567126 0.012674 0.300192 -0.109186 0.000000 0.000000 0.000000 3.799855 -3.644481 -3.436870 0.188542 2.060026 8.450931 15.962396 13.709615 -7.538692 0.000000 0.000000 0.000000 3.731203 -4.647729 -5.649159 0.617391 -4.315807 -11.348396 2.213637 -2.824587 -3.242861 21.019704 2.873481 -17.078934 21.150903 -6.803479 -18.448814 0.000000 0.000000 0.000000 8.383727 -3.715067 -4.130594 6.587781 14.438096 2.184471 -11.925733 1.391586 5.588086 -6.732838 -34.110497 48.620872 -37.652692 57.175722 25.910162 0.000000 0.000000 0.000000 
10.034446 13.581598 189.625595 0.000000 0.000000 0.000000 31.870219 -51.032537 40.077983 -119.231593 2.375559 35.612159 90.157636 1.333098 -6.245485 44.175854 3.074293 -16.303194 -6.235267 -3.426057 6.553047 0.000000 0.000000 0.000000 29.936876 -51.417210 38.302656 -33.459618 -28.122380 -26.636409 122.566543 19.985253 -25.507504 22.872975 -8.914431 75.761606 -22.409359 15.310632 -63.648627 0.000000 0.000000 0.000000 29.408766 -48.410253 37.085403 18.592174 3.879692 -7.496212 8.223452 -3.346449 -2.844745 0.030876 0.216720 -0.057510 0.000000 0.000000 0.000000 4.375601 -3.272124 -3.817443 -2.813828 0.993788 8.872068 8.659587 6.533858 -9.849432 0.000000 0.000000 0.000000 2.733836 -4.423446 -6.199275 0.745529 -2.351552 -9.272472 2.820291 -1.858893 -3.106739 16.101391 8.969402 -7.660406 17.342002 -9.154311 -17.241368 0.000000 0.000000 0.000000 7.717082 -3.314651 -3.922205 5.406724 12.269205 2.262682 -11.770828 0.474360 5.753231 6.728991 -29.740430 62.650190 -51.792119 65.657475 41.062756 0.000000 0.000000 0.000000 
9.548528 14.281589 193.538940 0.000000 0.000000 0.000000 28.758576 -52.926651 33.423100 -123.702048 6.279482 35.080108 99.312453 3.954540 -8.570035 35.954638 8.128915 -6.840897 -7.963935 -2.708932 3.558162 0.000000 0.000000 0.000000 27.992024 -50.633603 32.175389 -19.097871 -36.315218 -19.642598 108.153471 25.795232 -26.445719 16.622604 -6.136101 83.628973 -24.215141 21.568793 -64.607907 0.000000 0.000000 0.000000 25.813882 -46.615187 29.136832 16.681473 4.196367 -7.864424 8.993888 -3.697384 -3.195770 0.105881 0.074321 0.004290 0.000000 0.000000 0.000000 5.425727 -3.284043 -4.139095 -5.990281 0.619070 9.818181 0.870061 0.776568 -12.772291 0.000000 0.000000 0.000000 2.432050 -4.543928 -6.612594 0.837655 -2.008209 -7.717355 2.757412 -0.825095 -2.348850 9.327067 9.743692 0.144901 13.435051 -10.255307 -15.647579 0.000000 0.000000 0.000000 7.380186 -3.437222 -4.000339 4.315717 11.482244 2.056521 -12.143848 0.151208 5.252021 13.259589 -22.089738 68.194309 -71.554940 70.010388 62.316604 0.000000 0.000000 0.000000 
8.923862 15.280312 197.463608 0.000000 0.000000 0.000000 25.846380 -52.688728 26.571784 -124.830723 10.862507 33.730876 107.428542 5.889004 -9.674989 19.855944 10.661053 4.146741 -4.009557 -1.634494 -0.685327 0.000000 0.000000 0.000000 26.096737 -48.001934 25.838742 -9.573319 -39.847095 -12.574943 91.135399 31.743844 -23.327734 12.831855 -5.099700 83.277976 -20.687909 22.163658 -63.731341 0.000000 0.000000 0.000000 24.206959 -44.090060 22.422813 14.504538 4.097226 -7.504912 10.061141 -4.297242 -3.640328 0.087337 -0.049607 0.025617 0.000000 0.000000 0.000000 6.413335 -3.499319 -4.493589 -8.536475 0.856152 11.018971 -6.176796 -4.788989 -15.870699 0.000000 0.000000 0.000000 2.741925 -4.886287 -7.070902 1.002595 -3.749223 -6.692360 1.473153 0.084267 -1.319491 3.254021 3.707500 4.070499 10.153332 -9.674321 -13.512438 0.000000 0.000000 0.000000 7.402640 -3.770295 -4.332053 3.180825 11.650914 1.986651 -12.466173 -0.289091 4.254493 14.694804 -12.912729 67.593997 -89.776013 70.659195 82.402428 0.000000 0.000000 0.000000 
8.068310 16.585060 201.305130 0.000000 0.000000 0.000000 24.337257 -50.011769 20.944623 -121.473070 16.359473 30.714135 113.284063 7.342057 -9.066482 1.946532 8.876820 13.137396 0.412710 -0.971128 -3.852353 0.000000 0.000000 0.000000 24.700841 -43.496834 20.077122 -8.096794 -39.687859 -9.458916 77.345008 33.228201 -16.032715 15.317428 -5.668745 73.685413 -12.961478 16.628722 -58.765035 0.000000 0.000000 0.000000 24.054663 -40.764208 17.132042 12.016266 3.620145 -6.696462 11.102538 -4.935819 -4.176101 -0.044015 0.050472 0.132303 0.000000 0.000000 0.000000 7.139023 -3.788729 -4.877126 -10.046560 1.637992 12.216335 -10.852997 -10.262555 -18.715591 0.000000 0.000000 0.000000 3.390490 -5.198861 -7.564136 1.244560 -7.191584 -5.870641 -0.306411 0.882394 -0.633286 -0.810578 -9.716380 2.862085 7.830155 -9.440555 -10.992044 0.000000 0.000000 0.000000 7.732913 -4.108961 -4.815805 1.961665 11.939427 2.112050 -12.923027 -1.482207 2.689128 13.373653 -3.120851 63.823842 -100.061663 69.606711 94.656231 0.000000 0.000000 0.000000 
6.984068 18.026667 204.942139 0.000000 0.000000 0.000000 23.876811 -44.955366 16.586075 -112.123969 23.389961 26.245953 114.916785 8.750896 -7.071358 -14.804695 4.764894 18.329373 -1.011301 -0.498357 -3.742447 0.000000 0.000000 0.000000 23.551527 -38.560475 15.432461 -17.255524 -36.353542 -13.010635 74.707305 30.921052 -9.744344 24.744563 -7.417164 59.038980 -4.410007 7.245770 -47.697489 0.000000 0.000000 0.000000 24.395405 -36.378458 13.264017 9.504146 2.830356 -5.721994 11.953533 -5.447304 -4.714833 -0.084085 0.342571 0.238402 0.000000 0.000000 0.000000 7.550031 -4.077534 -5.239243 -10.435618 2.734455 13.139671 -12.348110 -16.003466 -20.636460 0.000000 0.000000 0.000000 4.073824 -5.380361 -7.986429 1.603741 -11.317842 -4.732587 -0.931177 0.381418 -0.460545 -4.498394 -28.597621 -3.280666 6.619343 -12.083203 -8.211287 0.000000 0.000000 0.000000 8.216348 -4.358447 -5.350535 0.733638 11.675388 2.248711 -13.314107 -3.361331 1.293155 11.161075 6.239053 59.750399 -102.357946 68.642021 98.719955 0.000000 0.000000 0.000000 
